<!DOCTYPE svg PUBLIC "-//W3C//DTD SVG 1.1//EN" "https://www.w3.org/Graphics/SVG/1.1/DTD/svg11.dtd"><svg xmlns="http://www.w3.org/2000/svg" id="sfn-svg" class="sfn-workflow-graph" width="504" height="441">
    
    
<g transform="translate(12,19.680953979492188)"><g class="nodes"><g class="node-container" transform="translate(192.71484375,18.5)"><g class="node anchor"><circle class="shape" x="-16.180953979492188" y="-8.5" r="26.180953979492188"/><text class="label"><tspan xml:space="preserve" text-anchor="middle" alignment-baseline="central">Start</tspan></text></g></g><g class="node-container" transform="translate(222.68228149414062,386.5)"><g class="node anchor"><circle class="shape" x="-12.1796875" y="-8.5" r="22.1796875"/><text class="label"><tspan xml:space="preserve" text-anchor="middle" alignment-baseline="central">End</tspan></text></g></g><g class="node-container" transform="translate(192.71484375,110.5)"><g class="node state Parallel Container CaughtError" transform="translate(-165.31065368652344,-48.5)"><rect class="shape" rx="19.4" ry="19.4" x="0" y="0" width="330.6213073730469" height="97"/><g class="branches" transform="translate(20,40)"><g class="branch" transform="translate(0,0)"><g class="nodes"><g class="node-container" transform="translate(43.56287384033203,18.5)"><g class="node state Task Cancelled"><rect class="shape" rx="5" ry="5" x="-43.56287384033203" y="-18.5" width="87.12574768066406" height="37"/><text class="label"><tspan xml:space="preserve" text-anchor="middle" alignment-baseline="central">BookHotel</tspan></text></g></g></g><g class="edges"/></g><g class="branch" transform="translate(107.12574768066406,0)"><g class="nodes"><g class="node-container" transform="translate(44.71687316894531,18.5)"><g class="node state Task Cancelled"><rect class="shape" rx="5" ry="5" x="-44.71687316894531" y="-18.5" width="89.43374633789062" height="37"/><text class="label"><tspan xml:space="preserve" text-anchor="middle" alignment-baseline="central">BookFlight</tspan></text></g></g></g><g class="edges"/></g><g class="branch" transform="translate(216.5594940185547,0)"><g class="nodes"><g class="node-container" transform="translate(37.030906677246094,18.5)"><g class="node state Task Cancelled"><rect class="shape" rx="5" ry="5" x="-37.030906677246094" y="-18.5" width="74.06181335449219" height="37"/><text class="label"><tspan xml:space="preserve" text-anchor="middle" alignment-baseline="central">BookCar</tspan></text></g></g></g><g class="edges"/></g></g><path class="path" marker-end="url(#arrowhead281)" d="M165.31065368652344,0L165.3106536865234,3.333333333333333C165.31065368652344,6.666666666666666,165.31065368652344,13.333333333333332,148.35269037882486,16.666666666666664C131.39472707112628,20,97.47880045572916,20,80.5208371480306,23.33333333333333C63.562873840332024,26.666666666666664,63.562873840332024,33.33333333333333,63.56287384033202,36.666666666666664L63.56287384033203,40" style="fill: none;"/><path class="path" marker-end="url(#arrowhead282)" d="M165.31065368652344,0L165.3106536865234,3.333333333333333C165.31065368652344,6.666666666666666,165.31065368652344,13.333333333333332,166.39931488037107,16.666666666666664C167.48797607421875,20,169.66529846191406,20,170.7539596557617,23.33333333333333C171.84262084960938,26.666666666666664,171.84262084960938,33.33333333333333,171.84262084960935,36.666666666666664L171.84262084960938,40" style="fill: none;"/><path class="path" marker-end="url(#arrowhead283)" d="M165.31065368652344,0L165.3106536865234,3.333333333333333C165.31065368652344,6.666666666666666,165.31065368652344,13.333333333333332,183.35727818806964,16.666666666666664C201.40390268961588,20,237.49715169270831,20,255.54377619425455,23.33333333333333C273.5904006958008,26.666666666666664,273.5904006958008,33.33333333333333,273.5904006958008,36.666666666666664L273.5904006958008,40" style="fill: none;"/></g></g><g class="node-container" transform="translate(45.9453125,324.5)"><g class="node state Succeed NotYetStarted"><rect class="shape" rx="5" ry="5" x="-45.9453125" y="-18.5" width="91.890625" height="37"/><text class="label"><tspan xml:space="preserve" text-anchor="middle" alignment-baseline="central">TripBooked</tspan></text></g></g><g class="node-container" transform="translate(300.0416564941406,232.5)"><g class="node state Parallel Container CaughtError" transform="translate(-179.65362548828125,-48.5)"><rect class="shape" rx="19.4" ry="19.4" x="0" y="0" width="359.3072509765625" height="97"/><g class="branches" transform="translate(20,40)"><g class="branch" transform="translate(0,0)"><g class="nodes"><g class="node-container" transform="translate(48.34386444091797,18.5)"><g class="node state Task Succeeded"><rect class="shape" rx="5" ry="5" x="-48.34386444091797" y="-18.5" width="96.68772888183594" height="37"/><text class="label"><tspan xml:space="preserve" text-anchor="middle" alignment-baseline="central">CancelHotel</tspan></text></g></g></g><g class="edges"/></g><g class="branch" transform="translate(116.68772888183594,0)"><g class="nodes"><g class="node-container" transform="translate(49.49786376953125,18.5)"><g class="node state Task Succeeded"><rect class="shape" rx="5" ry="5" x="-49.49786376953125" y="-18.5" width="98.9957275390625" height="37"/><text class="label"><tspan xml:space="preserve" text-anchor="middle" alignment-baseline="central">CancelFlight</tspan></text></g></g></g><g class="edges"/></g><g class="branch" transform="translate(235.68345642089844,0)"><g class="nodes"><g class="node-container" transform="translate(41.81189727783203,18.5)"><g class="node state Task Cancelled"><rect class="shape" rx="5" ry="5" x="-41.81189727783203" y="-18.5" width="83.62379455566406" height="37"/><text class="label"><tspan xml:space="preserve" text-anchor="middle" alignment-baseline="central">CancelCar</tspan></text></g></g></g><g class="edges"/></g></g><path class="path" marker-end="url(#arrowhead284)" d="M179.65362548828125,0L179.65362548828122,3.333333333333333C179.65362548828125,6.666666666666666,179.65362548828125,13.333333333333332,161.10199864705402,16.666666666666664C142.5503718058268,20,105.44711812337239,20,86.89549128214517,23.33333333333333C68.34386444091797,26.666666666666664,68.34386444091797,33.33333333333333,68.34386444091797,36.666666666666664L68.34386444091797,40" style="fill: none;"/><path class="path" marker-end="url(#arrowhead285)" d="M179.65362548828125,0L179.65362548828122,3.333333333333333C179.65362548828125,6.666666666666666,179.65362548828125,13.333333333333332,180.74228668212888,16.666666666666664C181.83094787597656,20,184.00827026367188,20,185.0969314575195,23.33333333333333C186.1855926513672,26.666666666666664,186.1855926513672,33.33333333333333,186.18559265136716,36.666666666666664L186.1855926513672,40" style="fill: none;"/><path class="path" marker-end="url(#arrowhead286)" d="M179.65362548828125,0L179.65362548828122,3.333333333333333C179.65362548828125,6.666666666666666,179.65362548828125,13.333333333333332,199.29391352335608,16.666666666666664C218.93420155843097,20,258.2147776285807,20,277.8550656636556,23.33333333333333C297.49535369873047,26.666666666666664,297.49535369873047,33.33333333333333,297.4953536987304,36.666666666666664L297.49535369873047,40" style="fill: none;"/></g></g><g class="node-container" transform="translate(222.68228149414062,324.5)"><g class="node state Fail NotYetStarted"><rect class="shape" rx="5" ry="5" x="-52.875" y="-18.5" width="105.75" height="37"/><text class="label"><tspan xml:space="preserve" text-anchor="middle" alignment-baseline="central">TripCancelled</tspan></text></g></g><g class="node-container" transform="translate(377.4010314941406,324.5)"><g class="node state Fail Failed"><rect class="shape" rx="5" ry="5" x="-61.84375" y="-18.5" width="123.6875" height="37"/><text class="label"><tspan xml:space="preserve" text-anchor="middle" alignment-baseline="central">TripCancelFailed</tspan></text></g></g></g><g class="edges"><g class="edge"><path class="path" marker-end="url(#arrowhead287)" d="M76.02103611680327,159L71.00841551400272,161.08333333333334C65.99579491120218,163.16666666666666,55.97055370560109,167.33333333333331,50.957933102800546,179.58333333333331C45.9453125,191.83333333333331,45.9453125,212.16666666666666,45.9453125,232.5C45.9453125,252.83333333333331,45.9453125,273.16666666666663,45.9453125,285.41666666666663C45.9453125,297.66666666666663,45.9453125,301.8333333333333,45.9453125,303.91666666666663L45.9453125,306" style="fill: none;"/><defs><marker id="arrowhead287" viewBox="0 0 10 10" refX="9" refY="5" markerUnits="strokeWidth" markerWidth="8" markerHeight="6" orient="auto"><path d="M 0 0 L 10 5 L 0 10 z"/></marker></defs></g><g class="edge"><path class="path" marker-end="url(#arrowhead288)" d="M278.0484571613249,159L281.71399038346084,161.08333333333334C285.3795236055968,163.16666666666666,292.7105900498687,167.33333333333331,296.37612327200463,171.49999999999997C300.0416564941406,175.66666666666666,300.0416564941406,179.83333333333331,300.0416564941406,181.91666666666666L300.0416564941406,184" style="fill: none;"/><defs><marker id="arrowhead288" viewBox="0 0 10 10" refX="9" refY="5" markerUnits="strokeWidth" markerWidth="8" markerHeight="6" orient="auto"><path d="M 0 0 L 10 5 L 0 10 z"/></marker></defs></g><g class="edge"><path class="path" marker-end="url(#arrowhead289)" d="M192.71484375,44.68095397949219L192.71484375,45.484128316243485C192.71484375,46.28730265299479,192.71484375,47.89365132649739,192.71484375,50.78015899658203C192.71484375,53.666666666666664,192.71484375,57.83333333333333,192.71484375,59.91666666666666L192.71484375,62" style="fill: none;"/><defs><marker id="arrowhead289" viewBox="0 0 10 10" refX="9" refY="5" markerUnits="strokeWidth" markerWidth="8" markerHeight="6" orient="auto"><path d="M 0 0 L 10 5 L 0 10 z"/></marker></defs></g><g class="edge"><path class="path" marker-end="url(#arrowhead290)" d="M238.53461243676358,281L235.89255727965974,283.0833333333333C233.2505021225559,285.16666666666663,227.96639180834825,289.3333333333333,225.32433665124444,293.5C222.6822814941406,297.66666666666663,222.6822814941406,301.8333333333333,222.68228149414057,303.91666666666663L222.68228149414062,306" style="fill: none;"/><defs><marker id="arrowhead290" viewBox="0 0 10 10" refX="9" refY="5" markerUnits="strokeWidth" markerWidth="8" markerHeight="6" orient="auto"><path d="M 0 0 L 10 5 L 0 10 z"/></marker></defs></g><g class="edge"><path class="path" marker-end="url(#arrowhead291)" d="M361.5487005515177,281L364.19075570862157,283.0833333333333C366.8328108657253,285.16666666666663,372.116921179933,289.3333333333333,374.7589763370368,293.5C377.4010314941406,297.66666666666663,377.4010314941406,301.8333333333333,377.4010314941406,303.91666666666663L377.4010314941406,306" style="fill: none;"/><defs><marker id="arrowhead291" viewBox="0 0 10 10" refX="9" refY="5" markerUnits="strokeWidth" markerWidth="8" markerHeight="6" orient="auto"><path d="M 0 0 L 10 5 L 0 10 z"/></marker></defs></g><g class="edge"><path class="path" marker-end="url(#arrowhead292)" d="M45.9453125,343L45.9453125,345.0833333333333C45.9453125,347.16666666666663,45.9453125,351.3333333333333,71.76044475855919,357.94468988993395C97.57557701711838,364.55604644653454,149.20584153423675,373.612092893069,175.02097379279596,378.1401161163363L200.83610605135516,382.66813933960356" style="fill: none;"/><defs><marker id="arrowhead292" viewBox="0 0 10 10" refX="9" refY="5" markerUnits="strokeWidth" markerWidth="8" markerHeight="6" orient="auto"><path d="M 0 0 L 10 5 L 0 10 z"/></marker></defs></g><g class="edge"><path class="path" marker-end="url(#arrowhead293)" d="M222.68228149414062,343L222.68228149414057,345.0833333333333C222.6822814941406,347.16666666666663,222.6822814941406,351.3333333333333,222.68228149414057,354.88671875C222.6822814941406,358.44010416666663,222.6822814941406,361.3802083333333,222.68228149414057,362.85026041666663L222.68228149414062,364.3203125" style="fill: none;"/><defs><marker id="arrowhead293" viewBox="0 0 10 10" refX="9" refY="5" markerUnits="strokeWidth" markerWidth="8" markerHeight="6" orient="auto"><path d="M 0 0 L 10 5 L 0 10 z"/></marker></defs></g><g class="edge"><path class="path" marker-end="url(#arrowhead294)" d="M377.4010314941406,343L377.4010314941406,345.0833333333333C377.4010314941406,347.16666666666663,377.4010314941406,351.3333333333333,355.23914834964296,357.8571005344392C333.0772652051453,364.380867735545,288.7534989161499,373.26173547109,266.59161577165224,377.7021693388625L244.42973262715458,382.14260320663504" style="fill: none;"/><defs><marker id="arrowhead294" viewBox="0 0 10 10" refX="9" refY="5" markerUnits="strokeWidth" markerWidth="8" markerHeight="6" orient="auto"><path d="M 0 0 L 10 5 L 0 10 z"/></marker></defs></g></g></g><style xmlns="http://www.w3.org/1999/xhtml">.node &gt; .shape {stroke: #555555;stroke-width: 0.6px;fill: #FFFFFF;} path {stroke: #555;background-color: #555;stroke-width: 1px;} .node.state.NotYetStarted &gt; .shape,.node.state.Container &gt; .shape {stroke-dasharray: 5 2;} .node.state.Failed &gt; .shape,rect.legend.Failed {fill: #DE322F;} .node.state.CaughtError &gt; .shape,rect.legend.CaughtError {fill: #FFA500;} .node.state.Succeeded &gt; .shape,rect.legend.Succeeded {fill: #2BD62E;} .node.state.InProgress &gt; .shape,rect.legend.InProgress {fill: #53c9ed;} .node.state.Cancelled &gt; .shape,rect.legend.Cancelled {fill: #dddddd;} .node.anchor &gt; .shape {fill: #FFDA75;} .node.state.hovered:not(.selected):not(.NotYetStarted) &gt; .shape,.node.selected &gt; .shape {stroke: #555555;stroke-width: 2px;} .node.state.Container.Failed &gt; .shape {fill: #EE9592;} .node.state.Container.CaughtError &gt; .shape {fill: #FFD27F;} .node.state.Container.Succeeded &gt; .shape {fill: #91EA9A;} .node.state.Container.InProgress &gt; .shape {fill :#A9E4F7;} .node.state.Container.Cancelled &gt; .shape {fill: #EEEEEE;} marker {fill: #555555;} .node.anchor,.node.state.NotYetStarted {cursor: default;} .node.state {cursor: pointer;} tspan .label {font-weight: normal;font-size: 12px;text-shadow: none;} </style></svg>